PathFileType	4	(X/Y/Z)	SUBJ62_1_walk_RCNL2025.trc
DataRate	CameraRate	NumFrames	NumMarkers	Units	OrigDataRate	OrigDataStartFrame	OrigNumFrames
100	100	12	25	mm	100	40	315
Frame#	Time	R_Shoulder			L_Shoulder			C7			J_Notch			R_Elbow			L_Elbow			R_Wrist			L_Wrist			R_Asis			L_Asis			Sacral			Thoracic			Sternum			R_Thigh_Lateral			R_Knee_Lateral			R_Shank_Lateral			R_Ankle_Lateral			R_Heel			R_Toe			L_Thigh_Lateral			L_Knee_Lateral			L_Shank_Lateral			L_Ankle_Lateral			L_Heel			L_Toe		
		X1	Y1	Z1	X2	Y2	Z2	X3	Y3	Z3	X4	Y4	Z4	X5	Y5	Z5	X6	Y6	Z6	X7	Y7	Z7	X8	Y8	Z8	X9	Y9	Z9	X10	Y10	Z10	X11	Y11	Z11	X12	Y12	Z12	X13	Y13	Z13	X14	Y14	Z14	X15	Y15	Z15	X16	Y16	Z16	X17	Y17	Z17	X18	Y18	Z18	X19	Y19	Z19	X20	Y20	Z20	X21	Y21	Z21	X22	Y22	Z22	X23	Y23	Z23	X24	Y24	Z24	X25	Y25	Z25
40	0.39000000	-727.501953	1284.970581	-34.409241	-756.019165	1302.641235	-371.208740	-811.089050	1362.721558	-197.826508	-682.500916	1272.187500	-209.299683	-708.255127	990.692200	35.474304	-811.956543	1002.961060	-435.227081	-560.360138	825.716858	24.535351	-756.861938	790.045502	-437.729980	-704.817139	880.762024	-61.076572	-701.887573	881.710999	-320.712830	-876.676147	881.555786	-195.734955	-878.013794	1168.811523	-192.945099	-675.457886	1071.848389	-208.546005	-781.608826	488.218506	-10.515454	-775.542725	431.907623	-88.141251	-793.415039	251.981949	-59.473244	-812.171021	65.278877	-142.851944	-859.841125	50.241951	-188.608368	-707.993774	49.591888	-147.932922	-654.748962	496.766846	-379.915863	-644.501709	437.488922	-333.507233	-712.728394	264.464264	-367.310760	-805.490540	123.772095	-304.934784	-856.733398	143.643478	-257.862030	-714.417725	66.698303	-299.699646
41	0.40000000	-717.682434	1284.904785	-33.601810	-746.587708	1301.942383	-370.565979	-801.383911	1362.267944	-197.022888	-672.802673	1271.860840	-208.389587	-694.025024	991.228027	36.816048	-807.926147	1002.748108	-432.657288	-540.853180	831.037506	23.511392	-758.048218	788.625977	-434.737656	-695.589783	879.952881	-59.580246	-690.895142	881.420044	-319.535339	-866.750549	881.107788	-195.224304	-868.251953	1168.298462	-191.929840	-665.651611	1071.465332	-207.339676	-777.773499	488.069672	-10.166331	-772.060974	431.712555	-87.833389	-791.581543	251.791245	-59.389172	-811.928711	65.407333	-142.956192	-859.508118	50.612904	-188.881744	-707.908020	49.538025	-147.920822	-638.266968	497.935669	-378.460449	-628.167786	437.905396	-331.561340	-687.207275	260.338257	-364.799164	-772.610901	115.105034	-302.427673	-825.486572	132.359299	-255.899078	-678.449097	63.552719	-296.122467
42	0.41000000	-707.851440	1284.673218	-32.828915	-737.116943	1301.088867	-369.953491	-791.675598	1361.662598	-196.263382	-663.058228	1271.370239	-207.550964	-680.042969	991.642456	38.141624	-803.705200	1002.499084	-430.196930	-521.849808	836.342285	22.392104	-758.885895	787.304962	-431.655533	-686.366760	879.047485	-58.125690	-679.862549	880.948792	-318.427002	-856.758972	880.525269	-194.776794	-858.457764	1167.619507	-190.992676	-655.790161	1070.942993	-206.161057	-773.746216	487.913666	-9.839179	-768.488953	431.501862	-87.536644	-789.914307	251.633804	-59.286034	-811.669556	65.547188	-143.086227	-859.209351	51.049511	-189.158020	-707.742920	49.445034	-147.969925	-622.495300	498.754852	-376.969574	-612.647827	438.029877	-329.614563	-662.102844	256.512360	-362.284393	-739.156250	106.696609	-299.692749	-793.472839	121.194000	-253.683975	-642.229492	60.923397	-292.455017
43	0.42000000	-698.018555	1284.284302	-32.089230	-727.600647	1300.087280	-369.370117	-781.963623	1360.906006	-195.548050	-653.270752	1270.722412	-206.771652	-666.290222	991.940430	39.451988	-799.274109	1002.209167	-427.855896	-503.372681	841.599304	21.198989	-759.342896	786.069244	-428.511978	-677.151245	878.054871	-56.709030	-668.821899	880.311707	-317.344757	-846.695618	879.808899	-194.409302	-848.633179	1166.774048	-190.135925	-645.871399	1070.287109	-205.013794	-769.568298	487.749237	-9.551405	-764.806030	431.269653	-87.254410	-788.360046	251.505539	-59.174141	-811.397278	65.704224	-143.243866	-858.941895	51.540684	-189.436798	-707.514099	49.320015	-148.074951	-607.493713	499.189819	-375.430847	-597.982483	437.819885	-327.662323	-637.504761	252.981110	-359.777985	-705.258179	98.746643	-296.745087	-760.746887	110.337852	-251.164612	-605.903320	58.952885	-288.744751
44	0.43000000	-688.194580	1283.748047	-31.382639	-718.036316	1298.947998	-368.813477	-772.249512	1359.999146	-194.877701	-643.449036	1269.929443	-206.043442	-652.745178	992.127136	40.743942	-794.618042	1001.873230	-425.629639	-485.430237	846.775238	19.948541	-759.392731	784.909668	-425.338715	-667.934998	876.975769	-55.336708	-657.773682	879.519775	-316.260498	-836.553650	878.959045	-194.140411	-838.785828	1165.766724	-189.363388	-635.891479	1069.505737	-203.904800	-765.259460	487.567627	-9.325041	-760.967407	431.003967	-86.999718	-786.825684	251.393127	-59.071404	-811.113403	65.884682	-143.431854	-858.687561	52.074749	-189.725586	-707.256836	49.183228	-148.214447	-593.303833	499.208740	-373.840149	-584.172668	437.239380	-325.695038	-613.484070	249.739594	-357.287109	-671.085144	91.449844	-293.624451	-727.400391	99.977859	-248.307205	-569.635010	57.773315	-285.050262
45	0.44000000	-678.389526	1283.072510	-30.711281	-708.423462	1297.682739	-368.283020	-762.536072	1358.944458	-194.254608	-633.604370	1269.005371	-205.364670	-639.386963	992.206055	42.009865	-789.724548	1001.485596	-423.502777	-468.020798	851.831696	18.653375	-759.013489	783.816467	-422.165344	-658.697937	875.805237	-54.024639	-646.695984	878.584167	-315.161621	-826.326721	877.975281	-193.986115	-828.925598	1164.604614	-188.679626	-625.844727	1068.609741	-202.844940	-760.796143	487.349792	-9.180932	-756.910461	430.688507	-86.790131	-785.197815	251.279251	-58.999226	-810.814941	66.092514	-143.654251	-858.424194	52.647503	-190.035736	-707.003784	49.058411	-148.366425	-579.954224	498.781525	-372.197906	-571.187805	436.269836	-323.703430	-590.091980	246.796463	-354.817841	-636.838013	84.985466	-290.388367	-693.565430	90.286293	-245.097931	-533.613098	57.495079	-281.434448
46	0.45000000	-668.612915	1282.262085	-30.079180	-698.761841	1296.302124	-367.780914	-752.826782	1357.746582	-193.682404	-623.747131	1267.963745	-204.735931	-626.200867	992.179077	43.240295	-784.581543	1001.039673	-421.454987	-451.137878	856.726440	17.325784	-758.186646	782.775177	-419.016861	-649.415894	874.538513	-52.790138	-635.557922	877.516479	-314.048401	-816.009033	876.857422	-193.956726	-819.059021	1163.295288	-188.087997	-615.726196	1067.610718	-201.846558	-756.113037	487.072998	-9.125414	-752.567871	430.306580	-86.639320	-783.361633	251.148743	-58.977207	-810.494141	66.331642	-143.914459	-858.133301	53.265766	-190.378906	-706.771240	48.962517	-148.517120	-567.463745	497.879089	-370.505798	-558.973633	434.915894	-321.678833	-567.359924	244.179642	-352.377533	-602.746521	79.505470	-287.107544	-659.418152	81.408264	-241.542572	-498.056946	58.183971	-277.958618
47	0.46000000	-658.872559	1281.318970	-29.490835	-689.049622	1294.816040	-367.311829	-743.124268	1356.413574	-193.165604	-613.884338	1266.817749	-204.156082	-613.182068	992.045776	44.427601	-779.175171	1000.527222	-419.466583	-434.772079	861.417053	15.981002	-756.895844	781.766693	-415.915207	-640.069702	873.176147	-51.644413	-624.330322	876.325317	-312.929565	-805.594849	875.605408	-194.057587	-809.185669	1161.846558	-187.590607	-605.533752	1066.517456	-200.919373	-751.118896	486.717468	-9.141135	-747.877380	429.843262	-86.553139	-781.214111	250.993637	-59.018875	-810.142517	66.611542	-144.211945	-857.802551	53.944706	-190.764130	-706.559143	48.899601	-148.660965	-555.843445	496.474640	-368.765106	-547.458008	433.206848	-319.611420	-545.308411	241.931747	-349.974701	-569.068054	75.120461	-283.860626	-625.192200	73.457611	-237.675751	-463.216095	59.838482	-274.680573
48	0.47000000	-649.172974	1280.245239	-28.950222	-679.282410	1293.233521	-366.883362	-733.428101	1354.956299	-192.709976	-604.018982	1265.578857	-203.621216	-600.333984	991.803833	45.566097	-773.489502	999.938538	-417.522675	-418.911926	865.863892	14.638753	-755.126099	780.770386	-412.880035	-630.648682	871.725769	-50.590214	-612.992065	875.013794	-311.818359	-795.078064	874.219666	-194.291061	-799.298767	1160.266724	-187.190598	-595.269714	1065.334717	-200.067444	-745.711243	486.262848	-9.195060	-742.788513	429.286224	-86.529320	-778.670166	250.816208	-59.130936	-809.754211	66.949127	-144.540817	-857.424438	54.703995	-191.194946	-706.357361	48.862980	-148.797852	-545.093079	494.550507	-366.975708	-536.556824	431.195312	-317.490540	-523.963135	240.095642	-347.618164	-536.081909	71.884102	-280.723206	-591.199829	66.525414	-233.584564	-429.357300	62.382961	-271.654388
49	0.48000000	-639.513916	1279.045898	-28.461071	-669.454712	1291.563477	-366.506104	-723.734436	1353.389282	-192.322769	-594.149597	1264.258057	-203.127472	-587.663574	991.449951	46.649353	-767.507019	999.262939	-415.615417	-403.544357	870.029846	13.321386	-752.863190	779.767181	-409.927521	-621.149536	870.201294	-49.622860	-601.531555	873.581848	-310.732239	-784.453857	872.704041	-194.656631	-789.387756	1158.566772	-186.894150	-584.939209	1064.065552	-199.289536	-739.793823	485.683105	-9.254120	-737.268372	428.628296	-86.558090	-775.672729	250.625824	-59.314690	-809.326111	67.365685	-144.891449	-856.994324	55.566372	-191.667511	-706.153992	48.843437	-148.930374	-535.191406	492.111115	-365.135376	-526.178833	428.953064	-315.308807	-503.366516	238.695053	-345.318329	-504.078217	69.780075	-277.755615	-557.837463	60.685928	-229.423538	-396.747162	65.674004	-268.924042
50	0.49000000	-629.889587	1277.731689	-28.027250	-659.561646	1289.816284	-366.192139	-714.035583	1351.730713	-192.011337	-584.269958	1262.865967	-202.676178	-575.179077	990.982788	47.668606	-761.208923	998.490173	-413.745331	-388.655655	873.879181	12.050049	-750.091644	778.741180	-407.070190	-611.573059	868.620911	-48.733101	-589.947021	872.029785	-309.691925	-773.719421	871.069580	-195.149139	-779.440796	1156.762573	-186.709442	-574.547180	1062.717041	-198.581726	-733.301514	484.955261	-9.291459	-731.305786	427.869751	-86.623489	-772.213623	250.428818	-59.565086	-808.855896	67.882736	-145.252487	-856.510071	56.557598	-192.169388	-705.939941	48.835236	-149.060883	-526.081970	489.198212	-363.241669	-516.224731	426.563141	-313.068848	-483.578735	237.716019	-343.088715	-473.346375	68.716675	-274.994873	-525.550720	55.977142	-225.382584	-365.638550	69.510864	-266.511169
51	0.50000000	-620.288940	1276.319214	-27.651926	-649.599121	1288.005249	-365.953247	-704.321167	1350.002319	-191.781723	-574.369507	1261.415161	-202.273285	-562.889771	990.403809	48.612736	-754.574463	997.612183	-411.921112	-374.233841	877.377594	10.842471	-746.791229	777.680969	-404.320297	-601.919983	867.004517	-47.910564	-578.245422	870.360046	-308.717590	-762.873352	869.336914	-195.757599	-769.444702	1154.873779	-186.643631	-564.095764	1061.304443	-197.939468	-726.223816	484.074158	-9.285671	-724.912109	427.018982	-86.705482	-768.340149	250.224121	-59.866943	-808.339478	68.519821	-145.610687	-855.973145	57.706142	-192.678802	-705.709229	48.837299	-149.189285	-517.657532	485.901764	-361.296295	-506.578339	424.110565	-310.790833	-464.667877	237.095673	-340.941833	-444.164581	68.530922	-272.448761	-494.775574	52.369987	-221.615128	-336.263397	73.648880	-264.402527
